# xmcd
#
# Track frame offsets:
#	150
#	14687
#	26630
#	42695
#	62935
#	77965
#	95777
#	107900
#	124475
#	139682
#	153490
#	166860
#	181772
#	195617
#
# Disc length: 2870
#
# Revision: 1
# Processed by: cddbd v1.5.1PL0 Copyright (c) Steve Scherf et al.
# Submitted via: VisiTrax 2.9.3.171 - For more info visit www.synapsa.com
# Normalized: r0:DSETVAR1
#
DISCID=cb0b340e
DTITLE=Various Artist - Mr Music Country 4-99
DYEAR=1900
DGENRE=
TTITLE0=Sara Evans - Love, Don't Be a Stranger
TTITLE1=Mindy Miller - Guess Who's Back In Town
TTITLE2=Curt Ryle - Mirrors Don't Lie
TTITLE3=Martina McBride - Whatever you Say
TTITLE4=Billy Mata - From Tennessee To Texas
TTITLE5=Chris Wall - Waltz To  Cheyenne
TTITLE6=Dale Watson - Lovin' On Backstreets
TTITLE7=Lorrie Morgan - Crazy From the Heat
TTITLE8=Roger Cooper - Kickin' dirt On Me
TTITLE9=Mindy McCready - This Is Me
TTITLE10=Aaron Tippin - Cold Chill
TTITLE11=Paul Alan Coons - Not a Brick Out Of Place
TTITLE12=Judy Bailey - He's In Texas Tonight
TTITLE13=Kenny Chesney with George Joes and Tracy lawrence - Fron hillbilly heaven To Honkytonk Hell
EXTD=
EXTT0=
EXTT1=
EXTT2=
EXTT3=
EXTT4=
EXTT5=
EXTT6=
EXTT7=
EXTT8=
EXTT9=
EXTT10=
EXTT11=
EXTT12=
EXTT13=
PLAYORDER=
